<?xml version="1.0" standalone="no"?>
<!DOCTYPE svg PUBLIC "-//W3C//DTD SVG 20010904//EN"
 "http://www.w3.org/TR/2001/REC-SVG-20010904/DTD/svg10.dtd">
<svg version="1.0" xmlns="http://www.w3.org/2000/svg"
 width="518.000000pt" height="518.000000pt" viewBox="0 0 518.000000 518.000000"
 preserveAspectRatio="xMidYMid meet">
<metadata>
Created by potrace 1.11, written by Peter Selinger 2001-2013
</metadata>
<g transform="translate(0.000000,518.000000) scale(0.100000,-0.100000)"
fill="#000000" stroke="none">
<path d="M2948 4796 c-1 -2 -37 -6 -78 -10 -136 -12 -154 -14 -250 -36 -52
-12 -100 -22 -107 -24 -7 -1 -16 -5 -19 -9 -4 -4 -15 -7 -25 -7 -30 0 -211
-72 -334 -134 -99 -49 -275 -154 -295 -176 -3 -3 -34 -27 -70 -55 -83 -63
-261 -240 -332 -330 -154 -194 -260 -388 -342 -622 -19 -57 -33 -103 -29 -103
3 0 1 -6 -4 -12 -6 -7 -13 -23 -16 -35 -5 -22 -5 -22 47 4 141 72 346 147 459
169 10 2 28 6 40 10 19 6 20 5 8 -10 -7 -9 -10 -16 -6 -16 4 0 3 -6 -3 -13
-12 -13 -47 -107 -56 -148 -37 -164 -23 -264 44 -334 73 -75 83 -149 35 -245
-15 -30 -31 -57 -35 -60 -14 -11 -49 -96 -46 -115 3 -24 31 -39 108 -60 67
-18 91 -46 95 -109 1 -23 2 -46 2 -53 1 -7 10 -21 21 -31 20 -19 20 -19 1 -43
-21 -27 -22 -25 37 -148 35 -74 39 -88 29 -114 -9 -28 -7 -33 26 -63 31 -29
42 -33 76 -29 23 2 41 0 41 -5 0 -8 -102 -75 -109 -71 -2 2 -7 -1 -10 -6 -17
-25 -345 -173 -436 -197 -5 -1 -30 -9 -55 -16 -25 -7 -49 -15 -55 -16 -77 -23
-238 -55 -350 -70 -162 -21 -432 -21 -590 0 -16 3 -52 7 -80 11 -27 4 -57 9
-65 12 -8 3 -28 7 -45 9 -33 4 -70 12 -70 14 0 1 -27 7 -62 14 -7 1 -16 5 -19
9 -19 18 -26 3 -22 -43 5 -47 33 -90 60 -90 4 0 7 -4 5 -8 -2 -8 43 -55 115
-117 66 -57 77 -66 133 -105 28 -19 52 -37 55 -41 10 -10 111 -69 119 -69 5 0
11 -3 13 -7 5 -13 230 -119 263 -125 11 -2 23 -6 26 -10 3 -5 17 -9 32 -10 15
-1 27 -5 27 -9 0 -3 6 -6 13 -7 6 0 37 -8 67 -17 30 -9 64 -18 75 -20 11 -2
45 -8 75 -15 30 -6 80 -14 110 -18 72 -9 433 -8 485 1 108 19 199 38 215 44 8
3 24 8 35 10 35 7 200 65 213 75 6 6 12 8 12 4 0 -5 103 42 140 64 8 5 35 20
60 32 25 13 47 26 48 31 2 4 10 7 17 7 8 0 18 8 24 18 5 9 11 15 13 13 5 -7
69 35 109 71 10 10 23 18 28 18 6 0 16 8 23 18 17 23 68 55 76 48 8 -9 -172
-187 -255 -253 -40 -31 -73 -60 -73 -65 0 -5 -4 -7 -9 -4 -4 3 -16 -3 -26 -14
-10 -11 -23 -20 -30 -20 -7 0 -20 -9 -31 -21 -10 -11 -32 -27 -49 -35 -16 -8
-43 -23 -60 -34 -16 -10 -51 -29 -77 -42 -27 -13 -48 -27 -48 -31 0 -5 -4 -6
-9 -2 -5 3 -17 -2 -25 -11 -9 -8 -16 -12 -16 -9 0 4 -11 0 -25 -9 -14 -9 -25
-14 -25 -11 0 2 -18 -5 -40 -16 -21 -11 -45 -22 -52 -23 -7 -1 -20 -6 -28 -11
-8 -5 -19 -10 -25 -12 -35 -7 -55 -13 -95 -28 -25 -9 -52 -18 -60 -20 -8 -1
-33 -8 -55 -14 -37 -10 -77 -18 -100 -21 -5 0 6 -9 25 -19 19 -11 38 -17 42
-14 5 2 8 -1 8 -7 0 -7 7 -10 15 -7 8 4 17 2 19 -2 4 -7 72 -30 109 -37 4 -1
8 -2 10 -4 5 -4 102 -27 147 -35 186 -32 418 -36 565 -10 73 13 132 25 153 30
12 3 31 7 41 9 66 15 222 76 319 124 146 73 166 84 172 92 3 3 22 16 43 29 20
12 37 27 37 32 0 6 5 7 10 4 6 -3 10 -2 10 4 0 5 8 12 18 15 9 3 50 37 90 74
39 37 72 67 72 65 0 -3 66 69 98 107 11 14 31 36 43 50 27 32 139 203 163 251
26 49 45 74 52 66 10 -10 -71 -199 -87 -205 -5 -2 -9 -12 -9 -23 0 -10 -4 -19
-9 -19 -5 0 -14 -15 -22 -32 -7 -18 -16 -35 -19 -38 -3 -3 -16 -21 -28 -41
-12 -20 -35 -53 -52 -75 -17 -21 -40 -52 -53 -69 -32 -43 -100 -119 -115 -128
-7 -5 -10 -13 -6 -18 3 -5 2 -8 -3 -7 -4 2 -9 -2 -11 -7 -2 -6 -14 -16 -27
-23 -27 -14 -55 -55 -33 -48 7 3 40 7 73 10 93 8 295 53 375 83 8 3 20 7 25 8
37 9 188 74 278 119 95 49 242 138 293 179 276 221 443 414 592 684 66 121
159 353 176 439 2 10 11 46 19 79 16 61 18 74 38 200 21 136 17 445 -6 580 -3
17 -8 44 -10 60 -15 95 -65 282 -94 350 -5 11 -24 56 -42 100 -31 75 -49 112
-102 210 -79 146 -233 341 -377 478 -325 310 -724 498 -1190 563 -47 6 -356
15 -362 10z"/>
</g>
</svg>
